<?xml version="1.0" encoding="utf-8"?>
<!-- Generator: Adobe Illustrator 22.0.0, SVG Export Plug-In . SVG Version: 6.00 Build 0)  -->
<svg version="1.1" id="Layer_1" xmlns="http://www.w3.org/2000/svg" xmlns:xlink="http://www.w3.org/1999/xlink" x="0px" y="0px"
	 viewBox="0 0 45 45" style="enable-background:new 0 0 45 45;" xml:space="preserve">
<g id="Layer_2_1_">
</g>
<g id="Layer_1_1_">
	<path d="M30.3,8.8c-4.7,0-8.5-3-14.4-3c-2.2,0-4.1,0.4-5.9,1c0.3-0.7,0.4-1.4,0.3-2.1c-0.2-2.5-2.2-4.5-4.7-4.6
		C2.8,0.1,0.6,2.3,0.6,5.1c0,1.7,0.8,3.1,2.1,4v33.6c0,1.2,0.9,2.1,2.1,2.1h1.4c1.2,0,2.1-0.9,2.1-2.1v-8.2c2.5-1.1,5.5-1.9,10-1.9
		c4.7,0,8.5,3,14.4,3c4.2,0,7.5-1.4,10.7-3.6c0.8-0.5,1.2-1.4,1.2-2.3V8.6c0-2-2.1-3.4-4-2.5C37.5,7.4,33.8,8.8,30.3,8.8z"/>
</g>
</svg>
