<?xml version="1.0" encoding="utf-8"?>
<!-- Generator: Adobe Illustrator 22.0.0, SVG Export Plug-In . SVG Version: 6.00 Build 0)  -->
<svg version="1.1" id="Layer_1" xmlns="http://www.w3.org/2000/svg" xmlns:xlink="http://www.w3.org/1999/xlink" x="0px" y="0px"
	 viewBox="0 0 23 24.1" style="enable-background:new 0 0 23 24.1;" xml:space="preserve">
<style type="text/css">
	.st0{display:none;}
	.st1{display:inline;fill:#3ABCD5;}
	.st2{display:inline;}
	.st3{fill:none;stroke:#FFFFFF;stroke-width:8.642;stroke-linecap:round;stroke-linejoin:round;}
	.st4{fill:#B6B8BA;}
	.st5{fill:none;stroke:#B6B8BA;stroke-width:0.9101;}
	.st6{fill:none;stroke:#FC0452;stroke-width:2.5;stroke-linecap:round;stroke-miterlimit:10;}
</style>
<g id="Layer_4" class="st0">
	<rect id="XMLID_87_" x="-18.9" y="-6.7" class="st1" width="70" height="70"/>
	<g id="XMLID_128_" class="st2">
		<polyline id="XMLID_144_" class="st3" points="-1.5,31.4 11,23.1 21.9,32 32.9,24.2 		"/>
		<g id="XMLID_136_">
			<path id="XMLID_143_" class="st4" d="M-2.6,33.6c0,0-0.9,0-0.9-0.9v-2.6c0,0,0-0.9,0.9-0.9H0c0,0,0.9,0,0.9,0.9v2.6
				c0,0,0,0.9-0.9,0.9H-2.6z"/>
			<path id="XMLID_142_" class="st4" d="M9.8,26.2c0,0-1.5,0-1.5-1.5v-1.4c0,0,0-1.5,1.5-1.5h1.5c0,0,1.5,0,1.5,1.5v1.5
				c0,0,0,1.5-1.5,1.5H9.8V26.2z"/>
			<path id="XMLID_141_" class="st4" d="M20.9,19.3c0,0-1.5,0-1.5-1.5v-1.5c0,0,0-1.5,1.5-1.5h1.5c0,0,1.5,0,1.5,1.5v1.5
				c0,0,0,1.5-1.5,1.5H20.9z"/>
			<path id="XMLID_140_" class="st4" d="M32,27.1c0,0-1.5,0-1.5-1.5v-1.5c0,0,0-1.5,1.5-1.5h1.5c0,0,1.5,0,1.5,1.5v1.5
				c0,0,0,1.5-1.5,1.5H32z"/>
			<path id="XMLID_139_" class="st4" d="M9.8,41.2c0,0-1.5,0-1.5-1.5v-1.5c0,0,0-1.5,1.5-1.5h1.5c0,0,1.5,0,1.5,1.5v1.5
				c0,0,0,1.5-1.5,1.5H9.8z"/>
			<path id="XMLID_138_" class="st4" d="M20.9,33.5c0,0-1.5,0-1.5-1.5v-1.5c0,0,0-1.5,1.5-1.5h1.5c0,0,1.5,0,1.5,1.5V32
				c0,0,0,1.5-1.5,1.5H20.9z"/>
			<path id="XMLID_137_" class="st4" d="M32,40.3c0,0-1.5,0-1.5-1.5v-1.5c0,0,0-1.5,1.5-1.5h1.5c0,0,1.5,0,1.5,1.5v1.5
				c0,0,0,1.5-1.5,1.5H32z"/>
		</g>
		<g id="XMLID_129_">
			<line id="XMLID_135_" class="st5" x1="0" y1="30.9" x2="8.9" y2="38.6"/>
			<line id="XMLID_134_" class="st5" x1="-1.3" y1="32.7" x2="8.9" y2="24"/>
			<line id="XMLID_133_" class="st5" x1="10.6" y1="25.6" x2="20.5" y2="17.1"/>
			<line id="XMLID_132_" class="st5" x1="23.3" y1="31.6" x2="31.1" y2="25"/>
			<line id="XMLID_131_" class="st5" x1="12.2" y1="24.4" x2="20" y2="31"/>
			<line id="XMLID_130_" class="st5" x1="23.3" y1="31.3" x2="31.1" y2="37.9"/>
		</g>
	</g>
</g>
<path class="st6" d="M13,10.4l0.5,0.5c1.4,1.4,1.4,3.8,0,5.2l-4.4,4.4c-1.4,1.4-3.8,1.4-5.2,0L3.4,20c-1.4-1.4-1.4-3.8,0-5.2
	l2.4-2.4"/>
<path class="st6" d="M10.8,13.6l-0.5-0.5c-1.4-1.4-1.4-3.8,0-5.2l4.4-4.4c1.4-1.4,3.8-1.4,5.2,0L20.4,4c1.4,1.4,1.4,3.8,0,5.2
	l-2.4,2.4"/>
</svg>
