<?xml version="1.0" encoding="utf-8"?>
<!-- Generator: Adobe Illustrator 22.0.0, SVG Export Plug-In . SVG Version: 6.00 Build 0)  -->
<svg version="1.2" baseProfile="tiny" xmlns="http://www.w3.org/2000/svg" xmlns:xlink="http://www.w3.org/1999/xlink" x="0px"
	 y="0px" viewBox="0 0 92.7 10.9" xml:space="preserve">
<g id="Layer_2">
</g>
<g id="Layer_1">
	<g>
		<path fill="#FFFFFF" d="M36.7,4.3c-0.2-0.3-0.7-0.4-1-0.4c-0.4,0-0.9,0.2-0.9,0.6c0,1.1,2.8,0.4,2.8,2.5c0,1.4-1.1,2-2.4,2
			c-0.8,0-1.5-0.2-2.1-0.8l1-1.1c0.3,0.4,0.7,0.6,1.2,0.6c0.4,0,0.9-0.2,0.9-0.6c0-1.1-2.9-0.5-2.9-2.6c0-1.3,1.1-2,2.3-2
			c0.7,0,1.4,0.2,1.9,0.6L36.7,4.3z"/>
		<path fill="#FFFFFF" d="M38.8,2.8h1.4v2.5l2.4-2.5h1.8l-2.7,2.9l3,3.3h-1.9l-2.5-2.9V9h-1.4V2.8z"/>
		<path fill="#FFFFFF" d="M45.1,2.8h1.4V9h-1.4V2.8z"/>
		<path fill="#FFFFFF" d="M47.8,2.8h1.4v4.9h2.5V9h-3.9V2.8z"/>
		<path fill="#FFFFFF" d="M52.5,2.8h1.4v4.9h2.5V9h-3.9V2.8z"/>
		<path fill="#FFFFFF" d="M60.8,4h-1.8V2.8h4.9V4h-1.8V9h-1.4V4z"/>
		<path fill="#FFFFFF" d="M64.7,2.8h2.4c1.3,0,2.3,0.4,2.3,1.9c0,0.9-0.5,1.5-1.3,1.7L69.6,9H68l-1.3-2.5H66V9h-1.4V2.8z M66,5.4
			h0.8c0.5,0,1.1,0,1.1-0.7c0-0.6-0.6-0.7-1-0.7H66V5.4z"/>
		<path fill="#FFFFFF" d="M72.4,2.8h1.1L76.2,9h-1.5l-0.5-1.3h-2.4L71.3,9h-1.5L72.4,2.8z M72.9,4.6l-0.7,1.9h1.5L72.9,4.6z"/>
		<path fill="#FFFFFF" d="M76.9,2.8h1.4V9h-1.4V2.8z"/>
		<path fill="#FFFFFF" d="M79.6,2.8h1.4v4.9h2.5V9h-3.9V2.8z"/>
		<path fill="#FFFFFF" d="M87.2,4.3c-0.2-0.3-0.6-0.4-1-0.4c-0.4,0-0.9,0.2-0.9,0.6c0,1.1,2.8,0.4,2.8,2.5c0,1.4-1.1,2-2.4,2
			c-0.8,0-1.5-0.2-2.1-0.8l1-1.1c0.3,0.4,0.7,0.6,1.2,0.6c0.4,0,0.9-0.2,0.9-0.6c0-1.1-2.9-0.5-2.9-2.6c0-1.3,1.1-2,2.3-2
			c0.7,0,1.4,0.2,1.9,0.6L87.2,4.3z"/>
	</g>
	<g>
		<path fill="#231F20" d="M8,7.7C7.2,8.1,6.4,8.3,5.5,8.3C3.6,8.3,2.2,7,2.2,5c0-2,1.4-3.2,3.3-3.2c1,0,1.8,0.2,2.4,0.8l-1,1
			C6.6,3.3,6.2,3.1,5.5,3.1c-1.2,0-1.9,0.8-1.9,2c0,1.1,0.8,2,1.9,2c0.6,0,1-0.2,1.3-0.3v-1H5.6V4.5H8V7.7z"/>
		<path fill="#231F20" d="M12.3,3.5c-0.2-0.3-0.7-0.4-1-0.4c-0.4,0-0.9,0.2-0.9,0.6c0,1.1,2.8,0.4,2.8,2.5c0,1.4-1.1,2-2.4,2
			c-0.8,0-1.5-0.2-2.1-0.8l1-1.1C10.1,6.8,10.5,7,11,7c0.4,0,0.9-0.2,0.9-0.6C11.9,5.3,9,5.9,9,3.8c0-1.3,1.1-2,2.3-2
			c0.7,0,1.4,0.2,1.9,0.6L12.3,3.5z"/>
		<path fill="#231F20" d="M16.2,2h1.1L20,8.1h-1.5L18,6.8h-2.4l-0.5,1.3h-1.5L16.2,2z M16.8,3.8L16,5.7h1.5L16.8,3.8z"/>
		<path fill="#231F20" d="M20.7,2H23c1.3,0,2.3,0.4,2.3,1.9c0,1.4-1,1.9-2.3,1.9h-1v2.4h-1.4V2z M22.1,4.6H23c0.5,0,1-0.2,1-0.7
			c0-0.6-0.6-0.7-1.2-0.7h-0.7V4.6z"/>
		<path fill="#231F20" d="M26.2,2h2.3c1.3,0,2.3,0.4,2.3,1.9c0,1.4-1,1.9-2.3,1.9h-1v2.4h-1.4V2z M27.5,4.6h0.9c0.5,0,1-0.2,1-0.7
			c0-0.6-0.6-0.7-1.2-0.7h-0.7V4.6z"/>
		<path fill="#231F20" d="M37.2,3.5c-0.2-0.3-0.6-0.4-1-0.4c-0.4,0-0.9,0.2-0.9,0.6c0,1.1,2.8,0.4,2.8,2.5c0,1.4-1.1,2-2.4,2
			c-0.8,0-1.5-0.2-2.1-0.8l1-1.1C35,6.8,35.4,7,35.9,7c0.4,0,0.9-0.2,0.9-0.6c0-1.1-2.9-0.5-2.9-2.6c0-1.3,1.1-2,2.3-2
			c0.7,0,1.4,0.2,1.9,0.6L37.2,3.5z"/>
		<path fill="#231F20" d="M39.3,2h1.4v2.5L43,2h1.8L42,4.8l3,3.3h-1.9l-2.5-2.9v2.9h-1.4V2z"/>
		<path fill="#231F20" d="M45.6,2H47v6.1h-1.4V2z"/>
		<path fill="#231F20" d="M48.3,2h1.4v4.9h2.5v1.2h-3.9V2z"/>
		<path fill="#231F20" d="M53,2h1.4v4.9h2.5v1.2H53V2z"/>
		<path fill="#231F20" d="M61.4,3.2h-1.8V2h4.9v1.2h-1.8v4.9h-1.4V3.2z"/>
		<path fill="#231F20" d="M65.2,2h2.4c1.3,0,2.3,0.4,2.3,1.9c0,0.9-0.5,1.5-1.3,1.7l1.6,2.6h-1.6l-1.3-2.5h-0.7v2.5h-1.4V2z
			 M66.6,4.5h0.8c0.5,0,1.1,0,1.1-0.7c0-0.6-0.6-0.7-1-0.7h-0.9V4.5z"/>
		<path fill="#231F20" d="M72.9,2H74l2.7,6.1h-1.5l-0.5-1.3h-2.4l-0.5,1.3h-1.5L72.9,2z M73.5,3.8l-0.7,1.9h1.5L73.5,3.8z"/>
		<path fill="#231F20" d="M77.4,2h1.4v6.1h-1.4V2z"/>
		<path fill="#231F20" d="M80.1,2h1.4v4.9H84v1.2h-3.9V2z"/>
		<path fill="#231F20" d="M87.9,3.5c-0.2-0.3-0.6-0.4-1-0.4c-0.4,0-0.9,0.2-0.9,0.6c0,1.1,2.8,0.4,2.8,2.5c0,1.4-1.1,2-2.4,2
			c-0.8,0-1.5-0.2-2.1-0.8l1-1.1C85.6,6.8,86.1,7,86.5,7c0.4,0,0.9-0.2,0.9-0.6c0-1.1-2.9-0.5-2.9-2.6c0-1.3,1.1-2,2.3-2
			c0.7,0,1.4,0.2,1.9,0.6L87.9,3.5z"/>
	</g>
</g>
</svg>
