<?xml version="1.0" encoding="utf-8"?>
<!-- Generator: Adobe Illustrator 22.0.0, SVG Export Plug-In . SVG Version: 6.00 Build 0)  -->
<svg version="1.1" id="Layer_1" xmlns="http://www.w3.org/2000/svg" xmlns:xlink="http://www.w3.org/1999/xlink" x="0px" y="0px"
	 viewBox="0 0 43.1 21.7" style="enable-background:new 0 0 43.1 21.7;" xml:space="preserve">
<style type="text/css">
	.st0{display:none;}
	.st1{display:inline;fill:#3ABCD5;}
	.st2{display:inline;}
	.st3{fill:none;stroke:#FFFFFF;stroke-width:8.642;stroke-linecap:round;stroke-linejoin:round;}
	.st4{fill:#B6B8BA;}
	.st5{fill:none;stroke:#B6B8BA;stroke-width:0.9101;}
	.st6{fill:none;stroke:#3ABCD5;stroke-width:9;stroke-linecap:round;stroke-linejoin:round;}
	.st7{opacity:0.29;}
	.st8{fill:#FFFFFF;stroke:#000000;stroke-miterlimit:10;}
</style>
<g id="Layer_4" class="st0">
	<rect id="XMLID_87_" x="-8.9" y="-9.2" class="st1" width="70" height="70"/>
	<g id="XMLID_128_" class="st2">
		<polyline id="XMLID_144_" class="st3" points="8.5,28.9 21,20.6 31.9,29.5 42.9,21.7 		"/>
		<g id="XMLID_136_">
			<path id="XMLID_143_" class="st4" d="M7.4,31.1c0,0-0.9,0-0.9-0.9v-2.6c0,0,0-0.9,0.9-0.9H10c0,0,0.9,0,0.9,0.9v2.6
				c0,0,0,0.9-0.9,0.9H7.4z"/>
			<path id="XMLID_142_" class="st4" d="M19.8,23.7c0,0-1.5,0-1.5-1.5v-1.4c0,0,0-1.5,1.5-1.5h1.5c0,0,1.5,0,1.5,1.5v1.5
				c0,0,0,1.5-1.5,1.5h-1.5V23.7z"/>
			<path id="XMLID_141_" class="st4" d="M30.9,16.8c0,0-1.5,0-1.5-1.5v-1.5c0,0,0-1.5,1.5-1.5h1.5c0,0,1.5,0,1.5,1.5v1.5
				c0,0,0,1.5-1.5,1.5H30.9z"/>
			<path id="XMLID_140_" class="st4" d="M42,24.6c0,0-1.5,0-1.5-1.5v-1.5c0,0,0-1.5,1.5-1.5h1.5c0,0,1.5,0,1.5,1.5v1.5
				c0,0,0,1.5-1.5,1.5H42z"/>
			<path id="XMLID_139_" class="st4" d="M19.8,38.7c0,0-1.5,0-1.5-1.5v-1.5c0,0,0-1.5,1.5-1.5h1.5c0,0,1.5,0,1.5,1.5v1.5
				c0,0,0,1.5-1.5,1.5H19.8z"/>
			<path id="XMLID_138_" class="st4" d="M30.9,31c0,0-1.5,0-1.5-1.5V28c0,0,0-1.5,1.5-1.5h1.5c0,0,1.5,0,1.5,1.5v1.5
				c0,0,0,1.5-1.5,1.5H30.9z"/>
			<path id="XMLID_137_" class="st4" d="M42,37.8c0,0-1.5,0-1.5-1.5v-1.5c0,0,0-1.5,1.5-1.5h1.5c0,0,1.5,0,1.5,1.5v1.5
				c0,0,0,1.5-1.5,1.5H42z"/>
		</g>
		<g id="XMLID_129_">
			<line id="XMLID_135_" class="st5" x1="10" y1="28.4" x2="18.9" y2="36.1"/>
			<line id="XMLID_134_" class="st5" x1="8.7" y1="30.2" x2="18.9" y2="21.5"/>
			<line id="XMLID_133_" class="st5" x1="20.6" y1="23.1" x2="30.5" y2="14.6"/>
			<line id="XMLID_132_" class="st5" x1="33.3" y1="29.1" x2="41.1" y2="22.5"/>
			<line id="XMLID_131_" class="st5" x1="22.2" y1="21.9" x2="30" y2="28.5"/>
			<line id="XMLID_130_" class="st5" x1="33.3" y1="28.8" x2="41.1" y2="35.4"/>
		</g>
	</g>
</g>
<polyline id="XMLID_6_" class="st6" points="4.9,14.8 16,7.4 28.3,16.9 38.3,5.1 "/>
<g class="st7">
	<line id="XMLID_1_" class="st8" x1="4.9" y1="14.8" x2="15.8" y2="7.9"/>
	<line id="XMLID_25_" class="st8" x1="28.3" y1="16.9" x2="38.3" y2="5.1"/>
	<line id="XMLID_24_" class="st8" x1="15.8" y1="7.9" x2="28.3" y2="16.9"/>
</g>
<g>
	<circle cx="5.2" cy="14.7" r="2"/>
	<circle cx="15.8" cy="7.9" r="2"/>
	<circle cx="28.3" cy="16.5" r="2"/>
	<circle cx="38.2" cy="5" r="2"/>
</g>
</svg>
