<?xml version="1.0" encoding="utf-8"?>
<!-- Generator: Adobe Illustrator 22.0.0, SVG Export Plug-In . SVG Version: 6.00 Build 0)  -->
<svg version="1.1" id="Layer_1" xmlns="http://www.w3.org/2000/svg" xmlns:xlink="http://www.w3.org/1999/xlink" x="0px" y="0px"
	 viewBox="0 0 19.4 24.1" style="enable-background:new 0 0 19.4 24.1;" xml:space="preserve">
<style type="text/css">
	.st0{display:none;}
	.st1{display:inline;fill:#3ABCD5;}
	.st2{display:inline;}
	.st3{fill:none;stroke:#FFFFFF;stroke-width:8.642;stroke-linecap:round;stroke-linejoin:round;}
	.st4{fill:#B6B8BA;}
	.st5{fill:none;stroke:#B6B8BA;stroke-width:0.9101;}
	.st6{fill:#FC0452;}
	.st7{opacity:0.27;}
</style>
<g id="Layer_4" class="st0">
	<rect id="XMLID_87_" x="-20.7" y="-6.7" class="st1" width="70" height="70"/>
	<g id="XMLID_128_" class="st2">
		<polyline id="XMLID_144_" class="st3" points="-3.3,31.4 9.2,23.1 20.1,32 31.1,24.2 		"/>
		<g id="XMLID_136_">
			<path id="XMLID_143_" class="st4" d="M-4.4,33.6c0,0-0.9,0-0.9-0.9v-2.6c0,0,0-0.9,0.9-0.9h2.6c0,0,0.9,0,0.9,0.9v2.6
				c0,0,0,0.9-0.9,0.9H-4.4z"/>
			<path id="XMLID_142_" class="st4" d="M8,26.2c0,0-1.5,0-1.5-1.5v-1.4c0,0,0-1.5,1.5-1.5h1.5c0,0,1.5,0,1.5,1.5v1.5
				c0,0,0,1.5-1.5,1.5H8V26.2z"/>
			<path id="XMLID_141_" class="st4" d="M19.1,19.3c0,0-1.5,0-1.5-1.5v-1.5c0,0,0-1.5,1.5-1.5h1.5c0,0,1.5,0,1.5,1.5v1.5
				c0,0,0,1.5-1.5,1.5H19.1z"/>
			<path id="XMLID_140_" class="st4" d="M30.2,27.1c0,0-1.5,0-1.5-1.5v-1.5c0,0,0-1.5,1.5-1.5h1.5c0,0,1.5,0,1.5,1.5v1.5
				c0,0,0,1.5-1.5,1.5H30.2z"/>
			<path id="XMLID_139_" class="st4" d="M8,41.2c0,0-1.5,0-1.5-1.5v-1.5c0,0,0-1.5,1.5-1.5h1.5c0,0,1.5,0,1.5,1.5v1.5
				c0,0,0,1.5-1.5,1.5H8z"/>
			<path id="XMLID_138_" class="st4" d="M19.1,33.5c0,0-1.5,0-1.5-1.5v-1.5c0,0,0-1.5,1.5-1.5h1.5c0,0,1.5,0,1.5,1.5V32
				c0,0,0,1.5-1.5,1.5H19.1z"/>
			<path id="XMLID_137_" class="st4" d="M30.2,40.3c0,0-1.5,0-1.5-1.5v-1.5c0,0,0-1.5,1.5-1.5h1.5c0,0,1.5,0,1.5,1.5v1.5
				c0,0,0,1.5-1.5,1.5H30.2z"/>
		</g>
		<g id="XMLID_129_">
			<line id="XMLID_135_" class="st5" x1="-1.8" y1="30.9" x2="7.1" y2="38.6"/>
			<line id="XMLID_134_" class="st5" x1="-3.1" y1="32.7" x2="7.1" y2="24"/>
			<line id="XMLID_133_" class="st5" x1="8.8" y1="25.6" x2="18.7" y2="17.1"/>
			<line id="XMLID_132_" class="st5" x1="21.5" y1="31.6" x2="29.3" y2="25"/>
			<line id="XMLID_131_" class="st5" x1="10.4" y1="24.4" x2="18.2" y2="31"/>
			<line id="XMLID_130_" class="st5" x1="21.5" y1="31.3" x2="29.3" y2="37.9"/>
		</g>
	</g>
</g>
<path class="st6" d="M18.7,9.6c0,2.7,0,4.2-7.7,12.9c-0.4,0.4-0.9,0.5-1.2,0.5c-0.3,0-0.8-0.1-1.1-0.5c-7.8-8.7-7.8-10.9-7.8-13
	c0-5,4-9,9-9S18.7,4.7,18.7,9.6z"/>
<circle class="st7" cx="9.7" cy="9.5" r="5.7"/>
</svg>
